<svg width="111" height="24" viewBox="0 0 111 24" fill="none" xmlns="http://www.w3.org/2000/svg">
<path d="M24.5365 18.0927C23.4265 17.5074 22.5502 16.6293 21.966 15.5756C21.3234 14.522 21.0312 13.2927 21.0312 12.0049C21.0312 10.7171 21.3234 9.48784 21.966 8.43418C22.6086 7.38053 23.4849 6.56101 24.5949 5.91711C25.7049 5.27321 26.9318 5.03906 28.3339 5.03906C29.4439 5.03906 30.437 5.21467 31.3718 5.62443C32.3065 6.03418 33.066 6.56101 33.7086 7.32199L32.0144 8.7854C31.0212 7.73175 29.8528 7.20492 28.3923 7.20492C27.4576 7.20492 26.6397 7.38053 25.8802 7.79028C25.1207 8.20004 24.5949 8.7854 24.1276 9.48784C23.7186 10.1903 23.4849 11.0098 23.4849 11.9464C23.4849 12.883 23.7186 13.7025 24.1276 14.4049C24.5365 15.1074 25.1207 15.6927 25.8802 16.1025C26.6397 16.5122 27.4576 16.6878 28.3923 16.6878C29.8528 16.6878 31.0212 16.161 32.0144 15.0488L33.6502 16.6293C33.0076 17.3903 32.2481 17.9171 31.3134 18.3269C30.3786 18.7366 29.3855 18.9122 28.2755 18.9122C26.8734 18.9708 25.6465 18.6781 24.5365 18.0927Z" fill="#414042"/>
<path d="M34.6406 4.39062H37.0359V18.7906H34.6406V4.39062Z" fill="#414042"/>
<path d="M49.5392 14.3456H41.4187C41.5355 15.1066 41.9445 15.692 42.5287 16.1603C43.1129 16.6285 43.8724 16.8042 44.7487 16.8042C45.8587 16.8042 46.7934 16.4529 47.5529 15.692L48.8382 17.2139C48.3708 17.7993 47.7866 18.209 47.0855 18.5017C46.3845 18.7944 45.5666 18.9115 44.6903 18.9115C43.5803 18.9115 42.5287 18.6773 41.7108 18.209C40.8345 17.7407 40.1919 17.0968 39.7245 16.3359C39.2571 15.5749 39.0234 14.6383 39.0234 13.5846C39.0234 12.5895 39.2571 11.6529 39.7245 10.8334C40.1919 10.0139 40.8345 9.37001 41.6524 8.96025C42.4703 8.49196 43.405 8.25781 44.3982 8.25781C45.3913 8.25781 46.3261 8.49196 47.0855 8.90171C47.9034 9.37001 48.4876 9.95537 48.955 10.7749C49.4224 11.5944 49.5976 12.531 49.5976 13.5846C49.5976 13.8188 49.5976 14.0529 49.5392 14.3456ZM42.4119 10.9505C41.8861 11.4188 41.5355 12.0042 41.4187 12.7651H47.3192C47.2024 12.0042 46.9103 11.4188 46.3845 10.9505C45.8587 10.4822 45.2161 10.2481 44.3982 10.2481C43.5803 10.2481 42.9376 10.4822 42.4119 10.9505Z" fill="#414042"/>
<path d="M58.7102 9.36616C59.5281 10.0686 59.937 11.1808 59.937 12.7027V18.7905H57.6586V17.5027C57.3665 17.971 56.9576 18.3223 56.3734 18.5564C55.8476 18.7905 55.1465 18.9076 54.387 18.9076C53.6276 18.9076 52.9265 18.7906 52.3423 18.4979C51.7581 18.2052 51.2907 17.854 50.9986 17.3857C50.7065 16.9174 50.5312 16.3905 50.5312 15.8052C50.5312 14.8686 50.8818 14.1076 51.5828 13.5808C52.2839 13.054 53.3355 12.7613 54.8544 12.7613H57.5418V12.5857C57.5418 11.8832 57.3081 11.2979 56.8991 10.8881C56.4902 10.4784 55.8476 10.3027 54.9712 10.3027C54.387 10.3027 53.8028 10.4198 53.277 10.5954C52.7512 10.771 52.2255 11.0052 51.8749 11.3564L50.9402 9.6003C51.466 9.19055 52.1086 8.83933 52.9265 8.66372C53.7444 8.48811 54.5039 8.3125 55.3218 8.3125C56.7239 8.3125 57.8923 8.66372 58.7102 9.36616ZM56.4902 16.7418C56.9576 16.4491 57.3081 16.0393 57.4834 15.571V14.3418H54.9712C53.5691 14.3418 52.8681 14.8101 52.8681 15.7466C52.8681 16.2149 53.0434 16.5076 53.3939 16.8003C53.7444 17.0345 54.2118 17.2101 54.8544 17.2101C55.4386 17.1515 56.0228 17.0345 56.4902 16.7418Z" fill="#414042"/>
<path d="M70.4578 9.4247C71.2172 10.1857 71.6262 11.2979 71.6262 12.8198V18.7905H69.2309V13.171C69.2309 12.293 68.9973 11.5905 68.5883 11.1223C68.1794 10.654 67.5367 10.4198 66.7773 10.4198C65.9009 10.4198 65.1999 10.7125 64.6741 11.2393C64.1483 11.7662 63.9146 12.5271 63.9146 13.5808V18.8491H61.4609V8.42957H63.7394V9.77592C64.1483 9.30762 64.6157 8.9564 65.2583 8.66372C65.8425 8.42957 66.5436 8.3125 67.303 8.3125C68.6467 8.3125 69.6983 8.66372 70.4578 9.4247Z" fill="#414042"/>
<path d="M76.9437 7.31825H72.4453V5.21094H83.9543V7.31825H79.4558V18.7914H76.9437V7.31825Z" fill="#414042"/>
<path d="M91.3664 9.36616C92.1843 10.0686 92.5933 11.1808 92.5933 12.7027V18.7905H90.3149V17.5027C90.0228 17.971 89.6138 18.3223 89.0296 18.5564C88.5038 18.7905 87.8028 18.9076 87.0433 18.9076C86.2838 18.9076 85.5828 18.7906 84.9986 18.4979C84.4143 18.2052 83.947 17.854 83.6549 17.3857C83.3628 16.9174 83.1875 16.3905 83.1875 15.8052C83.1875 14.8686 83.538 14.1076 84.2391 13.5808C84.9401 12.9954 85.9917 12.7613 87.5107 12.7613H90.198V12.5857C90.198 11.8832 89.9643 11.2979 89.5554 10.8881C89.1465 10.4784 88.5038 10.3027 87.6275 10.3027C87.0433 10.3027 86.4591 10.4198 85.9333 10.5954C85.4075 10.771 84.8817 11.0052 84.5312 11.3564L83.5964 9.6003C84.1222 9.19055 84.7649 8.83933 85.5828 8.66372C86.3422 8.42957 87.1601 8.3125 87.978 8.3125C89.3801 8.3125 90.5486 8.66372 91.3664 9.36616ZM89.1464 16.7418C89.6138 16.4491 89.9643 16.0393 90.1396 15.571V14.3418H87.6275C86.2254 14.3418 85.5243 14.8101 85.5243 15.7466C85.5243 16.2149 85.6996 16.5076 86.0501 16.8003C86.4007 17.0345 86.868 17.2101 87.5107 17.2101C88.1533 17.1515 88.6791 17.0345 89.1464 16.7418Z" fill="#414042"/>
<path d="M94.9375 4.39062H97.3328V18.7906H94.9375V4.39062Z" fill="#414042"/>
<path d="M103.581 14.3418L101.77 16.0394V18.7906H99.375V4.39062H101.77V13.1126L106.794 8.42965H109.716L105.392 12.7614L110.124 18.7906H107.203L103.581 14.3418Z" fill="#414042"/>
<path d="M15.2156 18.2371C16.6544 16.6645 17.5263 14.6114 17.5263 12.2961C17.5263 7.44719 13.6025 3.51562 8.76316 3.51562C3.9238 3.51562 0 7.44719 0 12.2961C0 17.145 3.9238 21.0766 8.76316 21.0766C9.72231 21.0766 10.6815 20.9019 11.5534 20.6398L16.3056 21.0766H16.3492C16.7416 21.0766 17.0031 20.5961 16.7416 20.2466L15.2156 18.2371Z" fill="#1F94B6"/>
<path d="M13.0373 17.7983C14.694 16.5315 15.7404 14.522 15.7404 12.2941C15.7404 8.44994 12.6013 5.30469 8.76471 5.30469C4.9281 5.30469 1.78906 8.44994 1.78906 12.2941C1.78906 16.1383 4.9281 19.2836 8.76471 19.2836C9.54947 19.2836 10.2906 19.1525 10.9882 18.9341L13.8221 19.2399C14.04 19.2836 14.0836 19.1525 13.9528 19.0215L13.0373 17.7983Z" fill="white"/>
<path d="M8.8079 14.9623C10.2767 14.9623 11.4674 13.7692 11.4674 12.2975C11.4674 10.8259 10.2767 9.63281 8.8079 9.63281C7.33912 9.63281 6.14844 10.8259 6.14844 12.2975C6.14844 13.7692 7.33912 14.9623 8.8079 14.9623Z" fill="#48B649"/>
</svg>
