<svg width="94" height="83" viewBox="0 0 94 83" fill="none" xmlns="http://www.w3.org/2000/svg">
<g clip-path="url(#clip0_1_49)">
<mask id="path-1-inside-1_1_49" fill="white">
<path d="M77.7627 0.00195312C86.2047 0.00195312 93.201 5.94071 93.2012 13.4424V54.5342C93.2012 62.0361 86.2048 67.9756 77.7627 67.9756H36.2002L12.085 82.1211C11.8428 82.2631 11.5344 82.2178 11.3428 82.0127C11.1513 81.8077 11.1274 81.4975 11.2852 81.2656L20.3477 67.9756H15.4404C6.99821 67.9756 0.00195312 62.0361 0.00195312 54.5342V13.4424C0.00215118 5.94071 6.99833 0.00195312 15.4404 0.00195312H77.7627Z"/>
</mask>
<path d="M77.7627 0.00195312C86.2047 0.00195312 93.201 5.94071 93.2012 13.4424V54.5342C93.2012 62.0361 86.2048 67.9756 77.7627 67.9756H36.2002L12.085 82.1211C11.8428 82.2631 11.5344 82.2178 11.3428 82.0127C11.1513 81.8077 11.1274 81.4975 11.2852 81.2656L20.3477 67.9756H15.4404C6.99821 67.9756 0.00195312 62.0361 0.00195312 54.5342V13.4424C0.00215118 5.94071 6.99833 0.00195312 15.4404 0.00195312H77.7627Z" fill="url(#paint0_linear_1_49)"/>
<path d="M93.2012 13.4424H94.2012V13.4424L93.2012 13.4424ZM36.2002 67.9756V66.9756C36.0223 66.9756 35.8477 67.023 35.6942 67.113L36.2002 67.9756ZM12.085 82.1211L12.5908 82.9837L12.5909 82.9837L12.085 82.1211ZM11.3428 82.0127L10.6119 82.6952L10.6121 82.6954L11.3428 82.0127ZM11.2852 81.2656L10.459 80.7022L10.4584 80.703L11.2852 81.2656ZM20.3477 67.9756L21.1739 68.539C21.3827 68.2327 21.405 67.8361 21.2318 67.5084C21.0586 67.1806 20.7183 66.9756 20.3477 66.9756V67.9756ZM0.00195312 13.4424L-0.998047 13.4424V13.4424H0.00195312ZM77.7627 0.00195312V1.00195C85.7948 1.00195 92.201 6.6254 92.2012 13.4424L93.2012 13.4424L94.2012 13.4424C94.201 5.25602 86.6145 -0.998047 77.7627 -0.998047V0.00195312ZM93.2012 13.4424H92.2012V54.5342H93.2012H94.2012V13.4424H93.2012ZM93.2012 54.5342H92.2012C92.2012 61.3514 85.7949 66.9756 77.7627 66.9756V67.9756V68.9756C86.6147 68.9756 94.2012 62.7207 94.2012 54.5342H93.2012ZM77.7627 67.9756V66.9756H36.2002V67.9756V68.9756H77.7627V67.9756ZM36.2002 67.9756L35.6942 67.113L11.579 81.2585L12.085 82.1211L12.5909 82.9837L36.7062 68.8381L36.2002 67.9756ZM12.085 82.1211L11.5791 81.2585C11.7416 81.1632 11.9466 81.1942 12.0735 81.33L11.3428 82.0127L10.6121 82.6954C11.1222 83.2413 11.944 83.363 12.5908 82.9837L12.085 82.1211ZM11.3428 82.0127L12.0736 81.3302C12.2011 81.4666 12.2172 81.6734 12.1119 81.8282L11.2852 81.2656L10.4584 80.703C10.0375 81.3215 10.1016 82.1488 10.6119 82.6952L11.3428 82.0127ZM11.2852 81.2656L12.1114 81.829L21.1739 68.539L20.3477 67.9756L19.5215 67.4122L10.459 80.7022L11.2852 81.2656ZM20.3477 67.9756V66.9756H15.4404V67.9756V68.9756H20.3477V67.9756ZM15.4404 67.9756V66.9756C7.40815 66.9756 1.00195 61.3514 1.00195 54.5342H0.00195312H-0.998047C-0.998047 62.7207 6.58828 68.9756 15.4404 68.9756V67.9756ZM0.00195312 54.5342H1.00195V13.4424H0.00195312H-0.998047V54.5342H0.00195312ZM0.00195312 13.4424L1.00195 13.4424C1.00213 6.62539 7.4082 1.00195 15.4404 1.00195V0.00195312V-0.998047C6.58846 -0.998047 -0.997831 5.25603 -0.998047 13.4424L0.00195312 13.4424ZM15.4404 0.00195312V1.00195H77.7627V0.00195312V-0.998047H15.4404V0.00195312Z" fill="#DDE6F8" mask="url(#path-1-inside-1_1_49)"/>
<path d="M19.6549 13.4791C19.7187 13.3034 19.9672 13.3034 20.0309 13.4791L21.2425 16.8181C21.27 16.8938 21.3402 16.9457 21.4207 16.9496L24.8402 17.1175C25.0219 17.1265 25.0983 17.3536 24.959 17.4705L22.2709 19.7255C22.2116 19.7752 22.1864 19.8546 22.206 19.9294L23.1147 23.3982C23.1617 23.5773 22.9609 23.7185 22.8082 23.6138L19.956 21.6582C19.8879 21.6115 19.798 21.6115 19.7298 21.6582L16.8777 23.6138C16.725 23.7185 16.5242 23.5773 16.5711 23.3982L17.4799 19.9294C17.4995 19.8546 17.4742 19.7752 17.415 19.7255L14.7269 17.4705C14.5875 17.3536 14.6639 17.1265 14.8456 17.1175L18.2652 16.9496C18.3457 16.9457 18.4159 16.8938 18.4434 16.8181L19.6549 13.4791Z" fill="#F9C430"/>
<path d="M33.3893 13.4791C33.4531 13.3034 33.7016 13.3034 33.7653 13.4791L34.9768 16.8181C35.0043 16.8938 35.0746 16.9457 35.155 16.9496L38.5746 17.1175C38.7563 17.1265 38.8327 17.3536 38.6933 17.4705L36.0053 19.7255C35.946 19.7752 35.9207 19.8546 35.9403 19.9294L36.8491 23.3982C36.896 23.5773 36.6953 23.7185 36.5425 23.6138L33.6904 21.6582C33.6222 21.6115 33.5324 21.6115 33.4642 21.6582L30.6121 23.6138C30.4593 23.7185 30.2586 23.5773 30.3055 23.3982L31.2143 19.9294C31.2339 19.8546 31.2086 19.7752 31.1493 19.7255L28.4613 17.4705C28.3219 17.3536 28.3983 17.1265 28.58 17.1175L31.9996 16.9496C32.08 16.9457 32.1503 16.8938 32.1778 16.8181L33.3893 13.4791Z" fill="#F9C430"/>
<path d="M60.8424 13.4791C60.9062 13.3034 61.1547 13.3034 61.2184 13.4791L62.43 16.8181C62.4575 16.8938 62.5277 16.9457 62.6082 16.9496L66.0277 17.1175C66.2094 17.1265 66.2858 17.3536 66.1465 17.4705L63.4584 19.7255C63.3991 19.7752 63.3739 19.8546 63.3935 19.9294L64.3022 23.3982C64.3492 23.5773 64.1484 23.7185 63.9957 23.6138L61.1435 21.6582C61.0754 21.6115 60.9855 21.6115 60.9173 21.6582L58.0652 23.6138C57.9125 23.7185 57.7117 23.5773 57.7586 23.3982L58.6674 19.9294C58.687 19.8546 58.6617 19.7752 58.6025 19.7255L55.9144 17.4705C55.775 17.3536 55.8514 17.1265 56.0331 17.1175L59.4527 16.9496C59.5332 16.9457 59.6034 16.8938 59.6309 16.8181L60.8424 13.4791Z" fill="#F9C430"/>
<path d="M47.1159 13.4791C47.1796 13.3034 47.4281 13.3034 47.4919 13.4791L48.7034 16.8181C48.7309 16.8938 48.8011 16.9457 48.8816 16.9496L52.3012 17.1175C52.4829 17.1265 52.5593 17.3536 52.4199 17.4705L49.7318 19.7255C49.6726 19.7752 49.6473 19.8546 49.6669 19.9294L50.5757 23.3982C50.6226 23.5773 50.4218 23.7185 50.2691 23.6138L47.417 21.6582C47.3488 21.6115 47.2589 21.6115 47.1908 21.6582L44.3386 23.6138C44.1859 23.7185 43.9851 23.5773 44.0321 23.3982L44.9408 19.9294C44.9604 19.8546 44.9352 19.7752 44.8759 19.7255L42.1878 17.4705C42.0485 17.3536 42.1249 17.1265 42.3066 17.1175L45.7261 16.9496C45.8066 16.9457 45.8769 16.8938 45.9043 16.8181L47.1159 13.4791Z" fill="#F9C430"/>
<path d="M74.5534 13.5025C74.6171 13.3268 74.8656 13.3268 74.9294 13.5025L76.1409 16.8415C76.1684 16.9173 76.2386 16.9691 76.3191 16.9731L79.7387 17.141C79.9204 17.1499 79.9968 17.3771 79.8574 17.494L77.1693 19.7489C77.1101 19.7986 77.0848 19.878 77.1044 19.9528L78.0132 23.4216C78.0601 23.6008 77.8593 23.742 77.7066 23.6372L74.8545 21.6816C74.7863 21.6349 74.6964 21.6349 74.6283 21.6816L71.7761 23.6372C71.6234 23.742 71.4226 23.6008 71.4696 23.4216L72.3783 19.9528C72.3979 19.878 72.3727 19.7986 72.3134 19.7489L69.6253 17.494C69.486 17.3771 69.5624 17.1499 69.7441 17.141L73.1636 16.9731C73.2441 16.9691 73.3144 16.9173 73.3418 16.8415L74.5534 13.5025Z" fill="#F9C430"/>
<path d="M17.0859 39.0469H70.6382" stroke="#DDE6F8" stroke-width="4" stroke-linecap="round"/>
<path d="M17.0859 50.0312H59.6531" stroke="#DDE6F8" stroke-width="4" stroke-linecap="round"/>
<mask id="mask0_1_49" style="mask-type:luminance" maskUnits="userSpaceOnUse" x="55" y="29" width="28" height="28">
<path d="M82.1812 29.4297H55.5234V56.0875H82.1812V29.4297Z" fill="white"/>
</mask>
<g mask="url(#mask0_1_49)">
<path d="M75.8578 48.6443C76.0577 48.4451 76.3259 48.3295 76.6079 48.3209C76.89 48.3122 77.1648 48.4113 77.3765 48.598C77.5881 48.7846 77.7208 49.0448 77.7476 49.3257C77.7743 49.6067 77.6932 49.8873 77.5205 50.1105L77.4284 50.2149L75.7622 51.881C75.4404 52.2031 75.0583 52.4586 74.6376 52.6329C74.217 52.8072 73.7662 52.897 73.3108 52.897C72.8555 52.897 72.4047 52.8072 71.984 52.6329C71.5634 52.4586 71.1813 52.2031 70.8594 51.881C70.6438 51.6649 70.3562 51.5357 70.0515 51.5178C69.7467 51.5 69.446 51.5949 69.2067 51.7844L69.0978 51.881L68.5424 52.4364C68.3425 52.6356 68.0743 52.7513 67.7923 52.7599C67.5102 52.7685 67.2354 52.6694 67.0237 52.4828C66.8121 52.2961 66.6794 52.0359 66.6526 51.755C66.6259 51.4741 66.707 51.1935 66.8797 50.9702L66.9718 50.8658L67.5272 50.3104C67.8491 49.9884 68.2312 49.7329 68.6518 49.5585C69.0725 49.3842 69.5233 49.2945 69.9786 49.2945C70.4339 49.2945 70.8848 49.3842 71.3054 49.5585C71.726 49.7329 72.1082 49.9884 72.43 50.3104C72.6457 50.5265 72.9332 50.6558 73.238 50.6736C73.5428 50.6914 73.8434 50.5966 74.0828 50.4071L74.1917 50.3104L75.8578 48.6443ZM73.8473 33.8604C74.3547 33.3448 75.0432 33.0476 75.7663 33.0319C76.4894 33.0162 77.1902 33.2833 77.7194 33.7764C78.2486 34.2694 78.5646 34.9495 78.6001 35.6719C78.6355 36.3944 78.3877 37.1022 77.9093 37.6447L77.7738 37.7891L64.9159 50.6459C64.756 50.806 64.5651 50.9318 64.3549 51.0158L64.1939 51.0702L61.0427 51.9666C60.862 52.0185 60.6711 52.0238 60.4878 51.9818C60.3045 51.9398 60.1349 51.852 59.9948 51.7266C59.8547 51.6011 59.7488 51.4422 59.6869 51.2647C59.625 51.0871 59.6092 50.8967 59.641 50.7114L59.6687 50.5926L60.5651 47.4403C60.6273 47.2228 60.7331 47.0202 60.8761 46.8449L60.9894 46.7183L73.8473 33.8604Z" fill="#9CB8F0"/>
</g>
</g>
<defs>
<linearGradient id="paint0_linear_1_49" x1="24.2839" y1="-0.148285" x2="23.9029" y2="81.6032" gradientUnits="userSpaceOnUse">
<stop stop-color="white"/>
<stop offset="1" stop-color="#F0F4FF"/>
</linearGradient>
<clipPath id="clip0_1_49">
<rect width="94" height="83" fill="white"/>
</clipPath>
</defs>
</svg>
